Source - ICTV PDVD5 (Thank u Guyz)
Encoder - p0kaman [www.frendz4m.com]


General
Complete name                    : IHLS PDVDRip XViD - p0kaman.avi
Format                           : AVI
Format/Info                      : Audio Video Interleave
File size                        : 698 MiB
Duration                         : 2h 10mn
Overall bit rate                 : 745 Kbps

Video
ID                               : 0
Format                           : MPEG-4 Visual
Format profile                   : Advanced Simple@L5
Format settings, BVOP            : Yes
Format settings, QPel            : No
Format settings, GMC             : No warppoints
Format settings, Matrix          : Default (H.263)
Codec ID                         : XVID
Codec ID/Hint                    : XviD
Duration                         : 2h 10mn
Bit rate                         : 636 Kbps
Width                            : 608 pixels
Height                           : 272 pixels
Display aspect ratio             : 2.25
Frame rate                       : 23.976 fps
Resolution                       : 24 bits
Colorimetry                      : 4:2:0
Scan type                        : Progressive
Bits/(Pixel*Frame)               : 0.161
Stream size                      : 596 MiB (85%)
Writing library                  : XviD 1.2.1 (UTC 2008-12-04)

Audio
ID                               : 1
Format                           : MPEG Audio
Format version                   : Version 1
Format profile                   : Layer 3
Codec ID                         : 55
Codec ID/Hint                    : MP3
Duration                         : 2h 10mn
Bit rate mode                    : Constant
Bit rate                         : 96.0 Kbps
Channel(s)                       : 2 channels
Sampling rate                    : 48.0 KHz
Resolution                       : 16 bits
Stream size                      : 89.9 MiB (13%)
Alignment                        : Split accross interleaves
Interleave, duration             : 24 ms (0.58 video frame)

Screenshots : 
http://img29.imageshack.us/img29/9498/ss6q.jpg
http://img718.imageshack.us/img718/161/ss1hm.jpg
http://img36.imageshack.us/img36/6719/ss2uq.jpg
http://img441.imageshack.us/img441/5505/ss3wk.jpg
http://img293.imageshack.us/img293/986/ss4k.jpg
http://img203.imageshack.us/img203/2183/ss5n.jpg
http://img690.imageshack.us/img690/5137/thumbs20100705174715.jpg